<svg width="20" height="17" fill="none" xmlns="http://www.w3.org/2000/svg"><path d="M15.87 6.162c-2.8 1.606-2.323 6.293.714 6.293 1.31 0 2.444-.985 2.948-2.244 1.166-2.907-1.258-5.428-3.662-4.049zm-2.876.581c3.36 0 4.366-5.705 1.174-6.643-1.454-.427-3.107.598-3.638 2.472-.596 2.1.576 4.17 2.464 4.17z" fill="#FF7236"/><path d="M12.13 16.896c-.466-.129-1.294-.212-2.161-.224-.916-.013-1.875.053-2.496.224-1.676.467-3.956-.662-3.456-3.008.463-2.17 2.126-2.046 2.519-4.101.396-2.078 1.936-3.08 3.433-3.002 1.385.073 2.734 1.072 3.101 3.002.39 2.057 2.05 1.932 2.513 4.1.502 2.349-1.784 3.472-3.453 3.01zM7.082 6.743c.95 0 1.766-.552 2.22-1.397C10.65 2.835 8.436-.642 5.908.102c-3.197.94-2.183 6.64 1.174 6.64z" fill="#FF7236"/><path d="M5.564 10.587c1.078-2.639-1.478-5.863-3.92-4.848-2.941 1.221-1.644 6.49 1.59 6.49 1.038 0 1.92-.638 2.33-1.642zm6.566 6.309c-.466-.129-1.294-.212-2.161-.224V6.785c1.385.073 2.734 1.072 3.101 3.002.391 2.057 2.05 1.932 2.513 4.1.502 2.348-1.783 3.472-3.453 3.01z" fill="#FF7236"/></svg>